# xmcd
#
# Track frame offsets:
#	150
#	14240
#	26830
#	39842
#	44030
#	58125
#	65682
#	73852
#	95865
#	106780
#	123987
#	141105
#	155367
#	167235
#	180065
#	194780
#
# Disc length: 2840 seconds
#
# Revision: 3
# Processed by: cddbd v1.5.1PL0 Copyright (c) Steve Scherf et al.
# Submitted via: EasyCDDAExtractor 5.0.6
#
DISCID=ef0b1610
DTITLE=Guided By Voices - Isolation Drills
DYEAR=2000
DGENRE=Indie Rock
TTITLE0=Fair Touching
TTITLE1=Skills Like This
TTITLE2=Chasing Heather Crazy
TTITLE3=Frostman
TTITLE4=Twilight Campfighter
TTITLE5=Sister I Need Wine
TTITLE6=Want One?
TTITLE7=The Enemy
TTITLE8=Unspirited
TTITLE9=Glad Girls
TTITLE10=Run Wild
TTITLE11=Pivotal Film
TTITLE12=How's My Drinking?
TTITLE13=The Brides Have Hit Glass
TTITLE14=Fine To See You
TTITLE15=Privately
EXTD=
EXTT0=
EXTT1=
EXTT2=
EXTT3=
EXTT4=
EXTT5=
EXTT6=
EXTT7=
EXTT8=
EXTT9=
EXTT10=
EXTT11=
EXTT12=
EXTT13=
EXTT14=
EXTT15=
PLAYORDER=
